# xmcd
#
# Track frame offsets: 
#        150
#        19337
#        33091
#        43963
#        59453
#        70863
#        89644
#        104904
#        129127
#        137503
#        158037
#        174842
#        184344
#        190797
#        206020
#        220843
#        232977
#        245387
#        263242
#        280138
#        292764
#        302530
#        315614
#        323719
#        340907
#
# Disc length: 4795 seconds
#
# Revision: 1
# Processed by: cddbd v1.5.2PL0 Copyright (c) Steve Scherf et al.
# Submitted via: ExactAudioCopy v1.0b3
#
DISCID=6912b919
DTITLE=Various Artist - Be True To Your School - A Fortuna Pop! Compilation
DYEAR=2008
DGENRE=Pop - 2000s
TTITLE0=Discordia - Y Sun Over Discordia
TTITLE1=Finlay - Home
TTITLE2=Tender Trap - Oh Katrina
TTITLE3=Sodastream - Blinky
TTITLE4=Bearsuit - Itsuko Got Married
TTITLE5=Mark 700 - Catchy Monkey
TTITLE6=Cannonball Jane - Take It To Fantastic
TTITLE7=Chemistry Experiment, The - You're The Prettiest Thing
TTITLE8=Loves, The - Xs and Os
TTITLE9=micktravis - Yvonne
TTITLE10=Butterflies Of Love, The - Rob A Bank
TTITLE11=Spraydog - Dialling Mitt
TTITLE12=International Strike Force - I'm A Tiger
TTITLE13=Twinkie - TK1
TTITLE14=Fanfarlo - Talking Backwards
TTITLE15=Lucksmiths, The - T-Shirt Weather
TTITLE16=Hibbett, MJ - Work's All Right (If It's A Proper Job)
TTITLE17=Taking Pictures - Fallen Angel
TTITLE18=Airport Girl - Between Delta And Delaware
TTITLE19=Mogul - Starving Hungry In Tescos
TTITLE20=Milky Wimpshake - Dialling Tone
TTITLE21=Aislers Set, The - The Walk
TTITLE22=Would-Be-Goods - Too Old
TTITLE23=Comet Gain - You Can Hide Your Love Forever
TTITLE24=Homescience - Small Music
EXTD=
EXTT0=
EXTT1=
EXTT2=
EXTT3=
EXTT4=
EXTT5=
EXTT6=
EXTT7=
EXTT8=
EXTT9=
EXTT10=
EXTT11=
EXTT12=
EXTT13=
EXTT14=
EXTT15=
EXTT16=
EXTT17=
EXTT18=
EXTT19=
EXTT20=
EXTT21=
EXTT22=
EXTT23=
EXTT24=
PLAYORDER=
